# Blender v2.93.4 OBJ File: ''
# www.blender.org
mtllib foundry_basin.mtl
o bot
v 1 0 0
v 0 0 0
v 0 0.125 0
v 1 0.125 0
v 1 0 1
v 1 0.125 1
v 0 0 1
v 0 0.125 1
vt 0 0
vt 1 0
vt 1 0.125
vt 0 0.125
vt 0 0
vt 1 0
vt 1 0.125
vt 0 0.125
vt 0 0
vt 1 0
vt 1 0.125
vt 0 0.125
vt 0 0
vt 1 0
vt 1 0.125
vt 0 0.125
vt 0 0
vt 1 0
vt 1 1
vt 0 1
vt 1 1
vt 0 1
vn 0 0 -1
vn 1 0 0
vn 0 0 1
vn -1 0 0
vn 0 1 0
vn 0 -1 -0
usemtl m_23224c38-973f-9f1f-bc34-76f56aee25d2
s 1
f 1/1/1 2/2/1 3/3/1 4/4/1
f 5/5/2 1/6/2 4/7/2 6/8/2
f 7/9/3 5/10/3 6/11/3 8/12/3
f 2/13/4 7/14/4 8/15/4 3/16/4
usemtl m_c322d5-13eb-678f-b55d-b8f3782ee944
f 8/17/5 6/18/5 4/19/5 3/20/5
f 2/13/6 1/6/6 5/21/6 7/22/6
o left
v 1 0.125 0.875
v 0 0.125 0.875
v 0 1 0.875
v 1 1 0.875
v 1 0.125 1
v 1 1 1
v 0 0.125 1
v 0 1 1
vt 0 0.125
vt 1 0.125
vt 1 1
vt 0 1
vt 0 0.125
vt 0.125 0.125
vt 0.125 1
vt 0 1
vt 0 0.125
vt 1 0.125
vt 1 1
vt 0 1
vt 0.875 0.125
vt 1 0.125
vt 1 1
vt 0.875 1
vt 0 0.875
vt 1 0.875
vt 1 1
vt 0 1
vn 0 0 -1
vn 1 0 0
vn 0 -0 1
vn -1 0 0
vn 0 1 0
usemtl m_2086b5e3-49bd-e050-0ac1-2810e1ba1fe2
s 1
f 9/23/7 10/24/7 11/25/7 12/26/7
usemtl m_23224c38-973f-9f1f-bc34-76f56aee25d2
f 13/27/8 9/28/8 12/29/8 14/30/8
f 15/31/9 13/32/9 14/33/9 16/34/9
f 10/35/10 15/36/10 16/37/10 11/38/10
usemtl m_d761e6cf-69bd-8e14-79e9-7283d3fc29d6
f 16/39/11 14/40/11 12/41/11 11/42/11
o right
v 1 0.125 0
v 0 0.125 0
v 0 1 0
v 1 1 0
v 1 0.125 0.125
v 1 1 0.125
v 0 0.125 0.125
v 0 1 0.125
vt 0 0.125
vt 1 0.125
vt 1 1
vt 0 1
vt 0.875 0.125
vt 1 0.125
vt 1 1
vt 0.875 1
vt 0 0.125
vt 0.125 0.125
vt 0.125 1
vt 0 1
vt 0 0.125
vt 1 0.125
vt 1 1
vt 0 1
vt 0 0.875
vt 1 0.875
vn 0 0 -1
vn 1 0 0
vn -1 0 0
vn 0 -0 1
vn 0 1 0
usemtl m_23224c38-973f-9f1f-bc34-76f56aee25d2
s 1
f 17/43/12 18/44/12 19/45/12 20/46/12
f 21/47/13 17/48/13 20/49/13 22/50/13
f 18/51/14 23/52/14 24/53/14 19/54/14
usemtl m_2086b5e3-49bd-e050-0ac1-2810e1ba1fe2
f 23/55/15 21/56/15 22/57/15 24/58/15
usemtl m_d761e6cf-69bd-8e14-79e9-7283d3fc29d6
f 24/59/16 22/60/16 20/49/16 19/54/16
o front
v 1 0.125 0.875
v 1 0.125 0.125
v 1 1 0.125
v 1 1 0.875
v 0.875 0.125 0.125
v 0.875 0.125 0.875
v 0.875 1 0.875
v 0.875 1 0.125
vt 0.125 0.125
vt 0.875 0.125
vt 0.875 1
vt 0.125 1
vt 0.125 0.125
vt 0.875 0.125
vt 0.875 1
vt 0.125 1
vt 0.125 0.875
vt 0.875 0.875
vt 0.875 1
vt 0.125 1
vn 1 0 0
vn -1 0 0
vn 0 1 0
usemtl m_23224c38-973f-9f1f-bc34-76f56aee25d2
s 1
f 25/61/17 26/62/17 27/63/17 28/64/17
usemtl m_2086b5e3-49bd-e050-0ac1-2810e1ba1fe2
f 29/65/18 30/66/18 31/67/18 32/68/18
usemtl m_d761e6cf-69bd-8e14-79e9-7283d3fc29d6
f 32/69/19 31/70/19 28/71/19 27/72/19
o back
v 0.125 0.125 0.875
v 0.125 0.125 0.125
v 0.125 1 0.125
v 0.125 1 0.875
v 0 0.125 0.125
v 0 0.125 0.875
v 0 1 0.875
v 0 1 0.125
vt 0.125 0.125
vt 0.875 0.125
vt 0.875 1
vt 0.125 1
vt 0.125 0.125
vt 0.875 0.125
vt 0.875 1
vt 0.125 1
vt 0.125 0.875
vt 0.875 0.875
vt 0.875 1
vt 0.125 1
vn 1 0 0
vn -1 0 0
vn 0 1 0
usemtl m_2086b5e3-49bd-e050-0ac1-2810e1ba1fe2
s 1
f 33/73/20 34/74/20 35/75/20 36/76/20
usemtl m_23224c38-973f-9f1f-bc34-76f56aee25d2
f 37/77/21 38/78/21 39/79/21 40/80/21
usemtl m_d761e6cf-69bd-8e14-79e9-7283d3fc29d6
f 40/81/22 39/82/22 36/83/22 35/84/22